<svg width="554" height="256" viewBox="0 0 554 256" fill="none" xmlns="http://www.w3.org/2000/svg">
<rect width="256" height="256" rx="32" fill="url(#paint0_angular_1_18)"/>
<g filter="url(#filter0_d_1_18)">
<path d="M303.952 128L274.128 60.8H283.6L310.992 123.136H306.512L334.288 60.8H343.248L313.296 128H303.952ZM367.356 128.64C360.359 128.64 354.215 127.189 348.924 124.288C343.633 121.301 339.495 117.248 336.508 112.128C333.521 106.923 332.028 100.992 332.028 94.336C332.028 87.68 333.436 81.792 336.252 76.672C339.153 71.552 343.079 67.5413 348.028 64.64C353.063 61.6533 358.695 60.16 364.924 60.16C371.239 60.16 376.828 61.6107 381.692 64.512C386.641 67.328 390.524 71.3387 393.34 76.544C396.156 81.664 397.564 87.5947 397.564 94.336C397.564 94.7627 397.521 95.232 397.436 95.744C397.436 96.1707 397.436 96.64 397.436 97.152H338.94V90.368H392.572L388.988 93.056C388.988 88.192 387.921 83.8827 385.788 80.128C383.74 76.288 380.924 73.3013 377.34 71.168C373.756 69.0347 369.617 67.968 364.924 67.968C360.316 67.968 356.177 69.0347 352.508 71.168C348.839 73.3013 345.98 76.288 343.932 80.128C341.884 83.968 340.86 88.3627 340.86 93.312V94.72C340.86 99.84 341.969 104.363 344.188 108.288C346.492 112.128 349.649 115.157 353.66 117.376C357.756 119.509 362.407 120.576 367.612 120.576C371.708 120.576 375.505 119.851 379.004 118.4C382.588 116.949 385.66 114.731 388.22 111.744L393.34 117.632C390.353 121.216 386.599 123.947 382.076 125.824C377.639 127.701 372.732 128.64 367.356 128.64ZM400.702 128V33.024H409.79V128H400.702ZM446.469 128.64C440.069 128.64 434.309 127.189 429.189 124.288C424.154 121.387 420.186 117.376 417.285 112.256C414.384 107.051 412.933 101.077 412.933 94.336C412.933 87.5093 414.384 81.536 417.285 76.416C420.186 71.296 424.154 67.328 429.189 64.512C434.309 61.6107 440.069 60.16 446.469 60.16C452.357 60.16 457.605 61.4827 462.213 64.128C466.906 66.7733 470.618 70.656 473.349 75.776C476.165 80.8107 477.573 86.9973 477.573 94.336C477.573 101.589 476.208 107.776 473.477 112.896C470.746 118.016 467.034 121.941 462.341 124.672C457.733 127.317 452.442 128.64 446.469 128.64ZM447.109 120.576C451.888 120.576 456.154 119.509 459.909 117.376C463.749 115.157 466.736 112.085 468.869 108.16C471.088 104.149 472.197 99.5413 472.197 94.336C472.197 89.0453 471.088 84.4373 468.869 80.512C466.736 76.5867 463.749 73.5573 459.909 71.424C456.154 69.2053 451.888 68.096 447.109 68.096C442.416 68.096 438.192 69.2053 434.437 71.424C430.682 73.5573 427.696 76.5867 425.477 80.512C423.258 84.4373 422.149 89.0453 422.149 94.336C422.149 99.5413 423.258 104.149 425.477 108.16C427.696 112.085 430.682 115.157 434.437 117.376C438.192 119.509 442.416 120.576 447.109 120.576ZM472.453 128V107.776L473.349 94.208L472.069 80.64V33.024H481.157V128H472.453ZM533.219 128V113.152L532.835 110.72V85.888C532.835 80.1707 531.214 75.776 527.971 72.704C524.814 69.632 520.078 68.096 513.763 68.096C509.411 68.096 505.272 68.8213 501.347 70.272C497.422 71.7227 494.094 73.6427 491.363 76.032L487.267 69.248C490.68 66.3467 494.776 64.128 499.555 62.592C504.334 60.9707 509.368 60.16 514.659 60.16C523.363 60.16 530.062 62.336 534.755 66.688C539.534 70.9547 541.923 77.4827 541.923 86.272V128H533.219ZM510.051 128.64C505.016 128.64 500.622 127.829 496.867 126.208C493.198 124.501 490.382 122.197 488.419 119.296C486.456 116.309 485.475 112.896 485.475 109.056C485.475 105.557 486.286 102.4 487.907 99.584C489.614 96.6827 492.344 94.3787 496.099 92.672C499.939 90.88 505.059 89.984 511.459 89.984H534.627V96.768H511.715C505.23 96.768 500.707 97.92 498.147 100.224C495.672 102.528 494.435 105.387 494.435 108.8C494.435 112.64 495.928 115.712 498.915 118.016C501.902 120.32 506.083 121.472 511.459 121.472C516.579 121.472 520.974 120.32 524.643 118.016C528.398 115.627 531.128 112.213 532.835 107.776L534.883 114.048C533.176 118.485 530.19 122.027 525.923 124.672C521.742 127.317 516.451 128.64 510.051 128.64ZM321.36 212.64C315.557 212.64 310.309 211.317 305.616 208.672C300.923 205.941 297.168 202.059 294.352 197.024C291.621 191.904 290.256 185.675 290.256 178.336C290.256 170.997 291.621 164.811 294.352 159.776C297.083 154.656 300.795 150.773 305.488 148.128C310.181 145.483 315.472 144.16 321.36 144.16C327.76 144.16 333.477 145.611 338.512 148.512C343.632 151.328 347.643 155.339 350.544 160.544C353.445 165.664 354.896 171.595 354.896 178.336C354.896 185.163 353.445 191.136 350.544 196.256C347.643 201.376 343.632 205.387 338.512 208.288C333.477 211.189 327.76 212.64 321.36 212.64ZM286.672 236.832V144.8H295.376V165.024L294.48 178.464L295.76 192.032V236.832H286.672ZM320.72 204.576C325.499 204.576 329.765 203.509 333.52 201.376C337.275 199.157 340.261 196.085 342.48 192.16C344.699 188.149 345.808 183.541 345.808 178.336C345.808 173.131 344.699 168.565 342.48 164.64C340.261 160.715 337.275 157.643 333.52 155.424C329.765 153.205 325.499 152.096 320.72 152.096C315.941 152.096 311.632 153.205 307.792 155.424C304.037 157.643 301.051 160.715 298.832 164.64C296.699 168.565 295.632 173.131 295.632 178.336C295.632 183.541 296.699 188.149 298.832 192.16C301.051 196.085 304.037 199.157 307.792 201.376C311.632 203.509 315.941 204.576 320.72 204.576ZM399.799 212V197.152L399.415 194.72V169.888C399.415 164.171 397.794 159.776 394.551 156.704C391.394 153.632 386.658 152.096 380.343 152.096C375.991 152.096 371.852 152.821 367.927 154.272C364.002 155.723 360.674 157.643 357.943 160.032L353.847 153.248C357.26 150.347 361.356 148.128 366.135 146.592C370.914 144.971 375.948 144.16 381.239 144.16C389.943 144.16 396.642 146.336 401.335 150.688C406.114 154.955 408.503 161.483 408.503 170.272V212H399.799ZM376.631 212.64C371.596 212.64 367.202 211.829 363.447 210.208C359.778 208.501 356.962 206.197 354.999 203.296C353.036 200.309 352.055 196.896 352.055 193.056C352.055 189.557 352.866 186.4 354.487 183.584C356.194 180.683 358.924 178.379 362.679 176.672C366.519 174.88 371.639 173.984 378.039 173.984H401.207V180.768H378.295C371.81 180.768 367.287 181.92 364.727 184.224C362.252 186.528 361.015 189.387 361.015 192.8C361.015 196.64 362.508 199.712 365.495 202.016C368.482 204.32 372.663 205.472 378.039 205.472C383.159 205.472 387.554 204.32 391.223 202.016C394.978 199.627 397.708 196.213 399.415 191.776L401.463 198.048C399.756 202.485 396.77 206.027 392.503 208.672C388.322 211.317 383.031 212.64 376.631 212.64ZM417.089 237.472C413.932 237.472 410.902 236.96 408.001 235.936C405.185 234.912 402.753 233.376 400.705 231.328L404.929 224.544C406.636 226.165 408.47 227.403 410.433 228.256C412.481 229.195 414.742 229.664 417.217 229.664C420.204 229.664 422.764 228.811 424.897 227.104C427.116 225.483 429.206 222.581 431.169 218.4L435.521 208.544L436.545 207.136L464.193 144.8H473.153L439.489 220.064C437.612 224.416 435.521 227.872 433.217 230.432C430.998 232.992 428.566 234.784 425.921 235.808C423.276 236.917 420.332 237.472 417.089 237.472ZM435.009 213.92L404.033 144.8H413.505L440.897 206.496L435.009 213.92Z" fill="white"/>
</g>
<defs>
<filter id="filter0_d_1_18" x="264.128" y="27.024" width="287.795" height="224.448" filterUnits="userSpaceOnUse" color-interpolation-filters="sRGB">
<feFlood flood-opacity="0" result="BackgroundImageFix"/>
<feColorMatrix in="SourceAlpha" type="matrix" values="0 0 0 0 0 0 0 0 0 0 0 0 0 0 0 0 0 0 127 0" result="hardAlpha"/>
<feOffset dy="4"/>
<feGaussianBlur stdDeviation="5"/>
<feComposite in2="hardAlpha" operator="out"/>
<feColorMatrix type="matrix" values="0 0 0 0 1 0 0 0 0 1 0 0 0 0 1 0 0 0 0.4 0"/>
<feBlend mode="normal" in2="BackgroundImageFix" result="effect1_dropShadow_1_18"/>
<feBlend mode="normal" in="SourceGraphic" in2="effect1_dropShadow_1_18" result="shape"/>
</filter>
<radialGradient id="paint0_angular_1_18" cx="0" cy="0" r="1" gradientUnits="userSpaceOnUse" gradientTransform="translate(128 128) rotate(90) scale(128)">
<stop stop-color="#EEFFAA"/>
<stop offset="1" stop-color="#B7FFB6"/>
</radialGradient>
</defs>
</svg>
