<svg width="128" height="128" viewBox="0 0 128 128" fill="none" xmlns="http://www.w3.org/2000/svg">
<rect width="128" height="128" rx="30" fill="url(#paint0_linear_212_21)"/>
<path d="M59.53 61.46V36.24C59.53 33.9867 59.8767 32.3833 60.57 31.43C61.2633 30.39 62.9533 29.87 65.64 29.87C67.2 29.87 68.6733 30.3467 70.06 31.3C71.5333 32.2533 72.79 33.5967 73.83 35.33C74.9567 36.9767 75.8233 39.0133 76.43 41.44C77.1233 43.78 77.47 46.4233 77.47 49.37C77.47 54.83 76.3433 59.1633 74.09 62.37C71.8367 65.49 69.2367 67.05 66.29 67.05C64.6433 67.05 63.0833 66.6167 61.61 65.75C60.2233 64.7967 59.53 63.3667 59.53 61.46ZM63.82 70.56C65.38 71.2533 66.81 71.8167 68.11 72.25C69.41 72.6833 70.6667 72.9 71.88 72.9C74.3067 72.9 76.56 72.3367 78.64 71.21C80.8067 69.9967 82.7133 68.3933 84.36 66.4C86.0067 64.32 87.3067 61.8933 88.26 59.12C89.2133 56.3467 89.69 53.3133 89.69 50.02C89.69 34.16 82.15 26.23 67.07 26.23C64.21 26.23 61.6967 26.2733 59.53 26.36C57.3633 26.4467 55.5433 26.49 54.07 26.49H51.99C48.87 26.49 46.4433 26.4467 44.71 26.36C43.0633 26.1867 42.0667 26.1 41.72 26.1C40.0733 26.1 39.25 26.7067 39.25 27.92C39.25 28.6133 39.38 29.09 39.64 29.35C39.9867 29.5233 40.42 29.6533 40.94 29.74C41.46 29.8267 42.0667 29.9133 42.76 30C43.54 30 44.32 30.13 45.1 30.39C46.3133 30.8233 47.05 31.43 47.31 32.21C47.6567 32.99 47.83 34.3333 47.83 36.24V94.87C47.83 97.8167 47.6567 99.94 47.31 101.24C46.9633 102.453 45.8367 103.32 43.93 103.84C43.3233 104.013 42.7167 104.1 42.11 104.1C41.5033 104.1 40.9833 104.143 40.55 104.23C40.1167 104.317 39.7267 104.49 39.38 104.75C39.12 105.01 38.99 105.443 38.99 106.05C38.99 107.437 39.8567 108.13 41.59 108.13C42.5433 108.13 43.9733 108 45.88 107.74C47.8733 107.393 50.3867 107.22 53.42 107.22C56.7133 107.22 59.3567 107.393 61.35 107.74C63.43 108 64.9033 108.13 65.77 108.13C66.6367 108.13 67.2867 107.957 67.72 107.61C68.24 107.177 68.5 106.7 68.5 106.18C68.5 105.4 68.3267 104.88 67.98 104.62C67.6333 104.36 67.1567 104.187 66.55 104.1C66.03 104.013 65.38 103.97 64.6 103.97C63.82 103.883 63.04 103.667 62.26 103.32C61.0467 102.713 60.31 101.933 60.05 100.98C59.79 100.027 59.66 98.4233 59.66 96.17V71.86C59.66 70.9933 59.7033 70.3867 59.79 70.04C59.9633 69.6067 60.31 69.39 60.83 69.39C60.9167 69.39 61.22 69.4767 61.74 69.65L63.82 70.56Z" fill="white"/>
<path d="M60.57 31.43L63.8049 33.7827L63.8529 33.7167L63.8982 33.6488L60.57 31.43ZM70.06 31.3L67.7939 34.5962L67.84 34.6279L67.887 34.6583L70.06 31.3ZM73.83 35.33L70.4 37.388L70.4614 37.4903L70.5288 37.5887L73.83 35.33ZM76.43 41.44L72.5494 42.4101L72.5703 42.4937L72.5948 42.5763L76.43 41.44ZM74.09 62.37L77.3327 64.712L77.3479 64.691L77.3628 64.6698L74.09 62.37ZM61.61 65.75L59.3439 69.0462L59.4602 69.1262L59.5819 69.1977L61.61 65.75ZM63.82 70.56L65.4446 66.9048L65.4339 66.9L65.4233 66.8954L63.82 70.56ZM68.11 72.25L66.8451 76.0447L66.8451 76.0447L68.11 72.25ZM78.64 71.21L80.5451 74.7272L80.5699 74.7138L80.5944 74.7L78.64 71.21ZM84.36 66.4L87.4438 68.9475L87.4704 68.9154L87.4962 68.8828L84.36 66.4ZM88.26 59.12L84.4773 57.8197L84.4773 57.8197L88.26 59.12ZM44.71 26.36L44.2913 30.338L44.4005 30.3495L44.5103 30.355L44.71 26.36ZM39.64 29.35L36.8116 32.1784L37.2706 32.6374L37.8512 32.9277L39.64 29.35ZM40.94 29.74L41.5976 25.7944L41.5976 25.7944L40.94 29.74ZM42.76 30L42.2639 33.9691L42.511 34H42.76V30ZM45.1 30.39L46.4453 26.623L46.4053 26.6087L46.3649 26.5953L45.1 30.39ZM47.31 32.21L43.5153 33.4749L43.5763 33.6581L43.6548 33.8346L47.31 32.21ZM47.31 101.24L51.1561 102.339L51.1658 102.305L51.1749 102.271L47.31 101.24ZM43.93 103.84L42.8775 99.9809L42.8543 99.9873L42.8311 99.9939L43.93 103.84ZM40.55 104.23L39.7655 100.308L39.7655 100.308L40.55 104.23ZM39.38 104.75L36.98 101.55L36.7526 101.721L36.5516 101.922L39.38 104.75ZM45.88 107.74L46.4205 111.703L46.4931 111.693L46.5654 111.681L45.88 107.74ZM61.35 107.74L60.6646 111.681L60.7589 111.697L60.8539 111.709L61.35 107.74ZM67.72 107.61L70.2188 110.733L70.25 110.708L70.2807 110.683L67.72 107.61ZM67.98 104.62L65.58 107.82L65.58 107.82L67.98 104.62ZM66.55 104.1L65.8924 108.046L65.9383 108.053L65.9843 108.06L66.55 104.1ZM64.6 103.97L64.1583 107.946L64.3785 107.97H64.6V103.97ZM62.26 103.32L60.4711 106.898L60.5524 106.938L60.6354 106.975L62.26 103.32ZM60.05 100.98L56.1909 102.032L56.1909 102.032L60.05 100.98ZM59.79 70.04L56.0761 68.5544L55.9753 68.8065L55.9094 69.0699L59.79 70.04ZM61.74 69.65L63.3433 65.9854L63.177 65.9126L63.0049 65.8553L61.74 69.65ZM63.53 61.46V36.24H55.53V61.46H63.53ZM63.53 36.24C63.53 35.3002 63.6039 34.6355 63.6997 34.1928C63.7984 33.7361 63.8872 33.6696 63.8049 33.7827L57.3351 29.0773C55.8626 31.102 55.53 33.798 55.53 36.24H63.53ZM63.8982 33.6488C63.5585 34.1583 63.2108 34.1825 63.5338 34.0831C63.8545 33.9845 64.5111 33.87 65.64 33.87V25.87C64.0823 25.87 62.5505 26.0155 61.1812 26.4369C59.8142 26.8575 58.2748 27.6616 57.2418 29.2112L63.8982 33.6488ZM65.64 33.87C66.3264 33.87 67.0189 34.0634 67.7939 34.5962L72.3261 28.0038C70.3278 26.63 68.0736 25.87 65.64 25.87V33.87ZM67.887 34.6583C68.7749 35.2328 69.6265 36.0987 70.4 37.388L77.26 33.272C75.9535 31.0946 74.2917 29.2738 72.233 27.9417L67.887 34.6583ZM70.5288 37.5887C71.3291 38.7584 72.0299 40.3319 72.5494 42.4101L80.3106 40.4699C79.6168 37.6948 78.5842 35.1949 77.1312 33.0713L70.5288 37.5887ZM72.5948 42.5763C73.159 44.4804 73.47 46.7312 73.47 49.37H81.47C81.47 46.1155 81.0877 43.0796 80.2652 40.3036L72.5948 42.5763ZM73.47 49.37C73.47 54.3208 72.4441 57.755 70.8172 60.0702L77.3628 64.6698C80.2425 60.5717 81.47 55.3392 81.47 49.37H73.47ZM70.8473 60.028C69.0927 62.4574 67.5735 63.05 66.29 63.05V71.05C70.8998 71.05 74.5806 68.5226 77.3327 64.712L70.8473 60.028ZM66.29 63.05C65.3843 63.05 64.5212 62.8217 63.6381 62.3023L59.5819 69.1977C61.6455 70.4116 63.9023 71.05 66.29 71.05V63.05ZM63.8761 62.4538C63.7192 62.346 63.6755 62.2716 63.6493 62.2174C63.6138 62.1443 63.53 61.9281 63.53 61.46H55.53C55.53 64.4801 56.714 67.2381 59.3439 69.0462L63.8761 62.4538ZM62.1954 74.2152C63.8458 74.9487 65.3977 75.5623 66.8451 76.0447L69.3749 68.4553C68.2223 68.0711 66.9142 67.5579 65.4446 66.9048L62.1954 74.2152ZM66.8451 76.0447C68.5009 76.5967 70.1851 76.9 71.88 76.9V68.9C71.1483 68.9 70.3191 68.77 69.3749 68.4553L66.8451 76.0447ZM71.88 76.9C74.9541 76.9 77.8646 76.1791 80.5451 74.7272L76.7349 67.6928C75.2554 68.4942 73.6593 68.9 71.88 68.9V76.9ZM80.5944 74.7C83.2103 73.2351 85.4954 71.3062 87.4438 68.9475L81.2762 63.8525C79.9313 65.4805 78.4031 66.7582 76.6856 67.72L80.5944 74.7ZM87.4962 68.8828C89.4517 66.4127 90.9578 63.5767 92.0427 60.4203L84.4773 57.8197C83.6556 60.21 82.5616 62.2273 81.2238 63.9172L87.4962 68.8828ZM92.0427 60.4203C93.1564 57.1805 93.69 53.7019 93.69 50.02H85.69C85.69 52.9247 85.2702 55.5128 84.4773 57.8197L92.0427 60.4203ZM93.69 50.02C93.69 41.5224 91.6736 34.4062 86.9338 29.4213C82.1581 24.3986 75.2795 22.23 67.07 22.23V30.23C73.9405 30.23 78.3719 32.0264 81.1362 34.9337C83.9364 37.8788 85.69 42.6576 85.69 50.02H93.69ZM67.07 22.23C64.1724 22.23 61.6037 22.2739 59.3701 22.3632L59.6899 30.3568C61.7896 30.2728 64.2476 30.23 67.07 30.23V22.23ZM59.3701 22.3632C57.2344 22.4486 55.4716 22.49 54.07 22.49V30.49C55.6151 30.49 57.4922 30.4447 59.6899 30.3568L59.3701 22.3632ZM54.07 22.49H51.99V30.49H54.07V22.49ZM51.99 22.49C48.8932 22.49 46.544 22.4467 44.9097 22.365L44.5103 30.355C46.3427 30.4466 48.8468 30.49 51.99 30.49V22.49ZM45.1287 22.382C43.5846 22.2194 42.3298 22.1 41.72 22.1V30.1C41.6925 30.1 41.8587 30.1045 42.381 30.15C42.8448 30.1903 43.4786 30.2525 44.2913 30.338L45.1287 22.382ZM41.72 22.1C40.5229 22.1 38.8996 22.2996 37.4947 23.3348C35.8616 24.5381 35.25 26.3105 35.25 27.92H43.25C43.25 28.0656 43.225 28.383 43.0488 28.7724C42.8624 29.1844 42.5721 29.5307 42.2403 29.7752C41.6588 30.2037 41.2704 30.1 41.72 30.1V22.1ZM35.25 27.92C35.25 28.8349 35.3653 30.7322 36.8116 32.1784L42.4684 26.5216C42.9714 27.0245 43.149 27.5342 43.2066 27.745C43.2642 27.9565 43.25 28.0422 43.25 27.92H35.25ZM37.8512 32.9277C38.6567 33.3305 39.5004 33.5552 40.2824 33.6856L41.5976 25.7944C41.4774 25.7744 41.4059 25.7556 41.3744 25.7462C41.3423 25.7366 41.366 25.7409 41.4288 25.7723L37.8512 32.9277ZM40.2824 33.6856C40.87 33.7835 41.5327 33.8777 42.2639 33.9691L43.2561 26.0309C42.6006 25.9489 42.05 25.8698 41.5976 25.7944L40.2824 33.6856ZM42.76 34C43.0873 34 43.4408 34.0533 43.8351 34.1847L46.3649 26.5953C45.1992 26.2067 43.9927 26 42.76 26V34ZM43.7547 34.157C44.0684 34.269 44.1089 34.3312 44.0197 34.2577C43.9681 34.2152 43.8766 34.1298 43.7776 33.992C43.6762 33.8511 43.5825 33.6765 43.5153 33.4749L51.1047 30.9451C50.2776 28.4637 48.1532 27.233 46.4453 26.623L43.7547 34.157ZM43.6548 33.8346C43.6066 33.7262 43.6704 33.8298 43.7329 34.3144C43.7908 34.7635 43.83 35.3948 43.83 36.24H51.83C51.83 34.2974 51.6839 32.2024 50.9652 30.5854L43.6548 33.8346ZM43.83 36.24V94.87H51.83V36.24H43.83ZM43.83 94.87C43.83 97.7803 43.647 99.452 43.4451 100.209L51.1749 102.271C51.6663 100.428 51.83 97.853 51.83 94.87H43.83ZM43.4639 100.141C43.5026 100.006 43.5654 99.8778 43.6397 99.7729C43.7111 99.6721 43.7675 99.6285 43.7662 99.6295C43.7617 99.633 43.7005 99.6786 43.5507 99.7471C43.4009 99.8156 43.1821 99.8979 42.8775 99.9809L44.9825 107.699C47.4303 107.031 50.2404 105.544 51.1561 102.339L43.4639 100.141ZM42.8311 99.9939C42.5674 100.069 42.3304 100.1 42.11 100.1V108.1C43.103 108.1 44.0792 107.957 45.0289 107.686L42.8311 99.9939ZM42.11 100.1C41.3298 100.1 40.5325 100.154 39.7655 100.308L41.3345 108.152C41.4342 108.132 41.6768 108.1 42.11 108.1V100.1ZM39.7655 100.308C38.7585 100.509 37.8142 100.924 36.98 101.55L41.78 107.95C41.7165 107.998 41.641 108.043 41.5571 108.08C41.4733 108.117 41.3966 108.14 41.3345 108.152L39.7655 100.308ZM36.5516 101.922C35.1793 103.294 34.99 105.037 34.99 106.05H42.99C42.99 106.012 42.9964 106.161 42.9188 106.419C42.8369 106.693 42.6425 107.144 42.2084 107.578L36.5516 101.922ZM34.99 106.05C34.99 107.626 35.5268 109.442 37.1412 110.733C38.5852 111.889 40.296 112.13 41.59 112.13V104.13C41.1507 104.13 41.5614 104.025 42.1388 104.487C42.455 104.739 42.6988 105.071 42.8448 105.422C42.9806 105.747 42.99 105.987 42.99 106.05H34.99ZM41.59 112.13C42.8258 112.13 44.4764 111.968 46.4205 111.703L45.3395 103.777C43.4703 104.032 42.2608 104.13 41.59 104.13V112.13ZM46.5654 111.681C48.2505 111.388 50.5149 111.22 53.42 111.22V103.22C50.2584 103.22 47.4961 103.399 45.1946 103.799L46.5654 111.681ZM53.42 111.22C56.6071 111.22 58.9934 111.39 60.6646 111.681L62.0354 103.799C59.72 103.396 56.8195 103.22 53.42 103.22V111.22ZM60.8539 111.709C62.9331 111.969 64.6281 112.13 65.77 112.13V104.13C65.1786 104.13 63.9269 104.031 61.8461 103.771L60.8539 111.709ZM65.77 112.13C67.064 112.13 68.7748 111.889 70.2188 110.733L65.2212 104.487C65.5189 104.248 65.7776 104.162 65.8769 104.135C65.9685 104.111 65.9498 104.13 65.77 104.13V112.13ZM70.2807 110.683C71.4173 109.736 72.5 108.224 72.5 106.18H64.5C64.5 105.741 64.6176 105.334 64.7934 105.012C64.9561 104.714 65.1243 104.566 65.1593 104.537L70.2807 110.683ZM72.5 106.18C72.5 105.104 72.3126 102.869 70.38 101.42L65.58 107.82C64.9488 107.347 64.6776 106.777 64.5753 106.47C64.4818 106.19 64.5 106.054 64.5 106.18H72.5ZM70.38 101.42C69.3186 100.624 68.1281 100.285 67.1157 100.14L65.9843 108.06C66.0688 108.072 66.0637 108.079 65.9955 108.054C65.9253 108.029 65.7699 107.962 65.58 107.82L70.38 101.42ZM67.2076 100.154C66.394 100.019 65.5064 99.97 64.6 99.97V107.97C65.2536 107.97 65.6661 108.008 65.8924 108.046L67.2076 100.154ZM65.0417 99.9945C64.7043 99.957 64.3218 99.8591 63.8846 99.6648L60.6354 106.975C61.7582 107.474 62.9357 107.81 64.1583 107.946L65.0417 99.9945ZM64.0489 99.7423C63.7551 99.5954 63.68 99.5065 63.7056 99.5335C63.7211 99.55 63.7593 99.5943 63.802 99.6686C63.8455 99.7443 63.8832 99.8328 63.9091 99.9275L56.1909 102.032C56.8496 104.448 58.6349 105.98 60.4711 106.898L64.0489 99.7423ZM63.9091 99.9275C63.8021 99.5353 63.66 98.4035 63.66 96.17H55.66C55.66 98.4432 55.7779 100.518 56.1909 102.032L63.9091 99.9275ZM63.66 96.17V71.86H55.66V96.17H63.66ZM63.66 71.86C63.66 71.4855 63.6696 71.2181 63.6823 71.04C63.6886 70.9526 63.6943 70.9049 63.6964 70.8892C63.6992 70.8687 63.694 70.9164 63.6706 71.0101L55.9094 69.0699C55.6906 69.9451 55.66 70.9984 55.66 71.86H63.66ZM63.5039 71.5256C63.3217 71.9812 62.9463 72.5405 62.3 72.9445C61.6858 73.3284 61.1179 73.39 60.83 73.39V65.39C60.0221 65.39 59.0209 65.56 58.06 66.1605C57.067 66.7811 56.4317 67.6655 56.0761 68.5544L63.5039 71.5256ZM60.83 73.39C60.6763 73.39 60.5514 73.3808 60.4696 73.373C60.3841 73.3649 60.314 73.3552 60.2644 73.3475C60.1683 73.3328 60.0983 73.3177 60.0679 73.311C60.0081 73.2977 59.986 73.2903 60.0236 73.3011C60.0936 73.3211 60.2364 73.3652 60.4751 73.4447L63.0049 65.8553C62.7236 65.7615 62.4547 65.6756 62.2214 65.6089C62.1073 65.5763 61.9607 65.5365 61.8034 65.5015C61.7413 65.4877 61.33 65.39 60.83 65.39V73.39ZM60.1367 73.3146L62.2167 74.2246L65.4233 66.8954L63.3433 65.9854L60.1367 73.3146Z" fill="black"/>
<defs>
<linearGradient id="paint0_linear_212_21" x1="64" y1="0" x2="64" y2="128" gradientUnits="userSpaceOnUse">
<stop stop-color="#51D38D"/>
<stop offset="1" stop-color="#07767D"/>
</linearGradient>
</defs>
</svg>
